# xmcd CD database file
#
# Track frame offsets:
#	180
#	26896
#	49532
#	73425
#	93878
#	120993
#	148625
#	173112
#	199266
#	222567
#	246705
#	275429
#
# Disc length: 4112 seconds
#
# Revision: 1
# Processed by: cddbd v1.5.1PL2 Copyright (c) Steve Scherf et al.
# Submitted via: CDex 1.51
#
DISCID=be100e0c
DTITLE=Jazz Nord - Jazz Nord
DYEAR=1900
DGENRE=Jazz
TTITLE0=Jasper
TTITLE1=Pop Slap
TTITLE2=Content
TTITLE3=Confirmation
TTITLE4=W.B.
TTITLE5=Breakdown Boulevard
TTITLE6=Piano meets Vibes
TTITLE7=Good Times Bad Times
TTITLE8=The News
TTITLE9=Jequibau
TTITLE10=Wispering Pines
TTITLE11=Melvin and Thaddeus
EXTD=
EXTT0=
EXTT1=
EXTT2=
EXTT3=
EXTT4=
EXTT5=
EXTT6=
EXTT7=
EXTT8=
EXTT9=
EXTT10=
EXTT11=
PLAYORDER=
